#!OML:ASF E:\motion texture\Top Level 1\Subject 1\Session 1\male.ASF
:FULLY-SPECIFIED
:DEGREES
373
root 3.32806 17.5789 4.90827 690.071 -87.2387 -685.596
lowerback 0.739287 -4.51913 -5.57952
upperback -2.78352 -6.13994 2.37532
thorax -2.45123 -2.93315 5.71017
lowerneck -21.578 -1.62427 -4.07029
upperneck 16.4577 -2.25189 5.92784
head 8.81061 -0.675242 2.38677
rclavicle -4.44253e-014 -1.11319e-014
rhumerus -53.2911 -11.0269 -65.6643
rradius 22.1671
rwrist 5.9502
rhand -11.2312 -15.0938
rfingers 7.12502
rthumb 14.7977 -44.5455
lclavicle -4.44253e-014 -1.11319e-014
lhumerus -0.0234292 -18.2014 86.6947
lradius 55.8932
lwrist -4.57796
lhand -12.2482 11.6972
lfingers 7.12502
lthumb 13.8179 41.2183
rfemur -52.9503 -7.06894 20.5275
rtibia 58.6158
rfoot 741 -5.20816
rtoes 18.421
lfemur 11.5375 -5.77241 -23.5057
ltibia 17.3547
lfoot 707.277 -7.9199
ltoes -13.4772
374
root 3.11911 17.5571 4.86551 696.454 -87.1248 -691.777
lowerback 0.181591 -4.53358 -5.51637
upperback -2.90242 -6.13347 2.46133
thorax -2.25963 -2.93732 5.71931
lowerneck -21.4566 -1.71269 -4.14821
upperneck 16.6046 -2.36545 5.94443
head 8.84736 -0.733591 2.39104
rclavicle 3.50482e-014 -2.62396e-014
rhumerus -52.8315 -10.5137 -67.0481
rradius 22.8888
rwrist 4.67546
rhand -11.6215 -15.3291
rfingers 7.12502
rthumb 14.4218 -44.808
lclavicle 3.50482e-014 -2.62396e-014
lhumerus -1.69989 -18.7261 87.187
lradius 55.5234
lwrist -4.5043
lhand -11.9679 12.0091
lfingers 7.12502
lthumb 14.0879 41.5116
rfemur -49.8823 -6.73259 20.6302
rtibia 56.3309
rfoot 737.111 -4.66773
rtoes 14.9027
lfemur 11.3479 -5.7053 -22.8585
ltibia 18.4464
lfoot 707.902 -8.69015
ltoes -14.6463
375
root 2.90787 17.5361 4.82113 702.599 -87.0059 -697.725
lowerback -0.355786 -4.53495 -5.42838
upperback -3.05261 -6.11267 2.54903
thorax -2.11644 -2.93252 5.72074
lowerneck -21.3257 -1.80478 -4.22713
upperneck 16.8066 -2.48445 5.94572
head 8.90157 -0.796384 2.39005
rclavicle -1.38901e-014 9.54166e-015
rhumerus -52.393 -9.98842 -68.4186
rradius 23.6518
rwrist 3.41984
rhand -12.0587 -15.5569
rfingers 7.12502
rthumb 14.0005 -45.0655
lclavicle -1.38901e-014 9.54166e-015
lhumerus -3.51758 -19.25 87.7314
lradius 55.1055
lwrist -4.44903
lhand -11.6633 12.3358
lfingers 7.12502
lthumb 14.3814 41.8176
rfemur -46.9009 -6.38134 20.8585
rtibia 54.0744
rfoot 732.6 -4.08567
rtoes 11.9178
lfemur 10.9459 -5.59161 -22.1229
ltibia 19.8692
lfoot 708.746 -9.58811
ltoes -15.893
376
root 2.69707 17.5164 4.77577 708.745 -86.9084 -703.674
lowerback -0.863584 -4.51294 -5.29422
upperback -3.22197 -6.06396 2.64253
thorax -2.01762 -2.91287 5.70747
lowerneck -21.2156 -1.90077 -4.30818
upperneck 17.059 -2.60813 5.93478
head 8.97701 -0.86253 2.38513
rclavicle -5.82688e-014 5.1684e-015
rhumerus -51.9437 -9.45857 -69.7883
rradius 24.4676
rwrist 2.17385
rhand -12.5538 -15.7836
rfingers 7.12502
rthumb 13.5233 -45.3245
lclavicle -5.82688e-014 5.1684e-015
lhumerus -5.42801 -19.7715 88.3167
lradius 54.6187
lwrist -4.42832
lhand -11.3099 12.687
lfingers 7.12502
lthumb 14.722 42.1442
rfemur -44.0782 -6.00598 21.235
rtibia 51.839
rfoot 727.891 -3.61241
rtoes 10.02
lfemur 10.2868 -5.42974 -21.288
ltibia 21.6614
lfoot 709.894 -10.5965
ltoes -17.1575
377
root 2.489 17.4991 4.73054 715.351 -86.8564 -710.107
lowerback -1.29925 -4.45556 -5.0808
upperback -3.40069 -5.97328 2.74323
thorax -1.98146 -2.87162 5.6664
lowerneck -21.1386 -2.00129 -4.37592
upperneck 17.3456 -2.73642 5.893
head 9.06989 -0.93285 2.367
rclavicle -5.38706e-014 -3.18055e-015
rhumerus -51.473 -8.91723 -71.1645
rradius 25.3618
rwrist 0.932646
rhand -13.0596 -16.0605
rfingers 7.12502
rthumb 13.0358 -45.6332
lclavicle -5.38706e-014 -3.18055e-015
lhumerus -7.41388 -20.253 88.941
lradius 54.0645
lwrist -4.42939
lhand -10.897 13.0241
lfingers 7.12502
lthumb 15.1197 42.4519
rfemur -41.4436 -5.59361 21.7722
rtibia 49.6209
rfoot 723.412 -3.39416
rtoes 9.49243
lfemur 9.35728 -5.20899 -20.3422
ltibia 23.844
lfoot 711.482 -11.6665
ltoes -18.2836
378
root 2.28661 17.4847 4.68621 722.992 -86.8586 -717.607
lowerback -1.6403 -4.3536 -4.76692
upperback -3.5722 -5.82894 2.85612
thorax -2.00563 -2.80393 5.59219
lowerneck -21.1214 -2.10479 -4.45298
upperneck 17.6591 -2.8658 5.85362
head 9.1832 -1.00309 2.35123
rclavicle -6.93758e-014 3.97569e-015
rhumerus -50.9401 -8.38302 -72.5362
rradius 26.3313
rwrist -0.291949
rhand -13.5706 -16.3543
rfingers 7.12502
rthumb 12.5431 -45.9578
lclavicle -6.93758e-014 3.97569e-015
lhumerus -9.42479 -20.7041 89.5779
lradius 53.4307
lwrist -4.45064
lhand -10.397 13.3201
lfingers 7.12502
lthumb 15.6013 42.7109
rfemur -39.028 -5.12071 22.4702
rtibia 47.4385
rfoot 719.579 -3.517
rtoes 10.3901
lfemur 8.14211 -4.92439 -19.2834
ltibia 26.42
lfoot 713.635 -12.7221
ltoes -19.1338
379
root 2.09203 17.4738 4.64345 732.449 -86.9034 -726.961
lowerback -1.87076 -4.20123 -4.32851
upperback -3.72666 -5.6232 2.98344
thorax -2.09046 -2.70698 5.47421
lowerneck -21.1648 -2.20721 -4.52444
upperneck 17.9687 -2.99071 5.80606
head 9.30587 -1.07078 2.33203
rclavicle 3.02153e-014 1.63003e-014
rhumerus -50.3254 -7.84306 -73.9104
rradius 27.3876
rwrist -1.51697
rhand -14.0579 -16.6325
rfingers 7.12502
rthumb 12.0733 -46.2643
lclavicle 3.02153e-014 1.63003e-014
lhumerus -11.4416 -21.0919 90.2144
lradius 52.7232
lwrist -4.51353
lhand -9.85755 13.5514
lfingers 7.12502
lthumb 16.1208 42.9009
rfemur -36.8546 -4.55106 23.3243
rtibia 45.3374
rfoot 716.606 -3.91598
rtoes 12.2327
lfemur 6.6375 -4.56097 -18.1092
ltibia 29.3807
lfoot 716.4 -13.6548
ltoes -19.4893
380
root 1.90765 17.4663 4.60348 744.094 -86.9398 -738.547
lowerback -1.97221 -4.00161 -3.76264
upperback -3.84625 -5.35915 3.12577
thorax -2.22565 -2.58336 5.31065
lowerneck -21.284 -2.30471 -4.59142
upperneck 18.241 -3.10315 5.75477
head 9.42869 -1.13136 2.31184
rclavicle -1.00386e-014 1.70955e-014
rhumerus -49.5856 -7.29069 -75.2851
rradius 28.5335
rwrist -2.74234
rhand -14.4816 -16.9053
rfingers 7.12502
rthumb 11.6647 -46.5606
lclavicle -1.00386e-014 1.70955e-014
lhumerus -13.424 -21.3799 90.8289
lradius 51.9612
lwrist -4.62105
lhand -9.2913 13.6939
lfingers 7.12502
lthumb 16.666 42.9985
rfemur -34.9348 -3.87183 24.2949
rtibia 43.4021
rfoot 714.426 -4.48216
rtoes 14.0888
lfemur 4.85007 -4.13017 -16.8581
ltibia 32.7186
lfoot 719.718 -14.339
ltoes -19.2318
381
root 1.73407 17.4619 4.56611 758.05 -86.9007 -752.494
lowerback -1.94769 -3.75676 -3.07463
upperback -3.91919 -5.03691 3.283
thorax -2.39445 -2.43411 5.10161
lowerneck -21.472 -2.39303 -4.64439
upperneck 18.4527 -3.19884 5.70006
head 9.54181 -1.18218 2.28955
rclavicle 7.1811e-015 3.18055e-015
rhumerus -48.7056 -6.70576 -76.665
rradius 29.7805
rwrist -3.95854
rhand -14.8344 -17.1302
rfingers 7.12502
rthumb 11.3245 -46.8045
lclavicle 7.1811e-015 3.18055e-015
lhumerus -15.3723 -21.5428 91.4011
lradius 51.1689
lwrist -4.80665
lhand -8.70338 13.7691
lfingers 7.12502
lthumb 17.2319 43.0251
rfemur -33.2715 -3.06285 25.3643
rtibia 41.7371
rfoot 712.902 -5.06962
rtoes 15.4906
lfemur 2.80937 -3.62609 -15.5434
ltibia 36.4068
lfoot 723.424 -14.7311
ltoes -18.3994
382
root 1.57158 17.4602 4.53199 773.021 -86.6999 -767.515
lowerback -1.80458 -3.47899 -2.28357
upperback -3.92959 -4.66974 3.45471
thorax -2.5708 -2.26642 4.85367
lowerneck -21.7129 -2.46818 -4.68204
upperneck 18.5682 -3.27122 5.64288
head 9.62919 -1.22019 2.26594
rclavicle 2.72583e-014 -9.54166e-015
rhumerus -47.6621 -6.06168 -78.0484
rradius 31.1273
rwrist -5.1538
rhand -15.1185 -17.2767
rfingers 7.12502
rthumb 11.0505 -46.9658
lclavicle 2.72583e-014 -9.54166e-015
lhumerus -17.2719 -21.5379 91.9147
lradius 50.3628
lwrist -5.096
lhand -8.11547 13.7548
lfingers 7.12502
lthumb 17.7977 42.9603
rfemur -31.839 -2.16609 26.4997
rtibia 40.4188
rfoot 711.848 -5.58875
rtoes 16.4209
lfemur 0.549914 -3.06233 -14.2056
ltibia 40.424
lfoot 727.255 -14.9117
ltoes -16.968
